<svg width="26" height="30" viewBox="0 0 26 30" fill="none" xmlns="http://www.w3.org/2000/svg">
<path d="M4.77933 29.25V15.7378C3.35433 15.3684 2.25655 14.7329 1.486 13.8315C0.717551 12.9301 0.333328 11.8275 0.333328 10.5239V0.75H1.91666V9.73225H4.77933V0.75H6.36266V9.73225H9.22533V0.75H10.8087V10.5239C10.8087 11.8275 10.4234 12.9301 9.65283 13.8315C8.88438 14.7319 7.78766 15.3668 6.36266 15.7363V29.25H4.77933ZM19.6072 29.25V15.2043C18.1822 14.7081 17.085 13.8336 16.3155 12.5807C15.546 11.3277 15.1618 9.80878 15.1628 8.02383C15.1628 6.02039 15.6764 4.30722 16.7034 2.88433C17.7305 1.46144 18.9623 0.75 20.3989 0.75C21.8556 0.75 23.098 1.46303 24.1261 2.88908C25.1531 4.31514 25.6667 6.02989 25.6667 8.03333C25.6667 9.83833 25.2772 11.3657 24.4982 12.6155C23.7181 13.8663 22.6156 14.7292 21.1906 15.2043V29.25H19.6072Z" fill="white"/>
</svg>
